<svg width="32" height="32" viewBox="0 0 32 32" fill="none" xmlns="http://www.w3.org/2000/svg">
<g clip-path="url(#clip0_495_11)">
<path d="M28 0C30.2091 0 32 1.79086 32 4V28C32 30.2091 30.2091 32 28 32H4C1.79086 32 0 30.2091 0 28V4C0 1.79086 1.79086 0 4 0H28ZM16.1963 4C9.58015 4.00005 4.00004 9.13665 4 15.9668C4 18.831 4.52375 20.8016 4.99414 22.5732C5.37823 24.0198 5.72656 25.3344 5.72656 26.8936C5.88664 28.883 9.37172 27.8602 10.7334 26.4023C10.8353 26.2934 11.0025 26.2701 11.124 26.3564C12.8925 27.6134 13.9925 27.9336 16.2588 27.9336C22.6473 27.9336 28 22.679 28 16.0332C28 9.38745 22.8125 4 16.1963 4ZM16.3818 9.92188C19.6051 10.0916 22.1823 12.9194 22.0137 16.1553C21.8448 19.3913 18.988 21.9245 15.7646 21.7549C14.7842 21.7033 13.8949 21.3406 13.1094 20.8584C12.9983 20.7902 12.8555 20.8058 12.7607 20.8955C12.2571 21.3723 11.5644 21.9033 11.2764 21.8301C10.5978 21.6562 9.80451 18.202 10.252 15.3672C10.7923 11.9441 13.2421 9.75666 16.3818 9.92188Z" fill="white"/>
</g>
<defs>
<clipPath id="clip0_495_11">
<rect width="32" height="32" fill="white"/>
</clipPath>
</defs>
</svg>
