<svg width="33" height="32" viewBox="0 0 33 32" fill="none" xmlns="http://www.w3.org/2000/svg">
<g clip-path="url(#clip0_251_49)">
<path d="M33.0001 27.3173C33.0001 29.9036 30.9035 32 28.3173 32H5.51869C2.93245 32 0.835938 29.9036 0.835938 27.3173V4.68275C0.835938 2.09651 2.93245 0 5.51869 0H28.3173C30.9036 0 33.0001 2.09651 33.0001 4.68275V27.3173Z" fill="#FAAB62"/>
<path d="M32.8348 27.2012C32.8348 29.7609 30.7598 31.8358 28.2002 31.8358H5.63569C3.07605 31.8358 1.0011 29.7609 1.0011 27.2012V4.79914C1.0011 2.2395 3.07613 0.164551 5.63569 0.164551H28.2002C30.7598 0.164551 32.8348 2.23959 32.8348 4.79914V27.2012Z" fill="white"/>
<path d="M16.9001 4.78271C13.7124 4.78271 11.1283 7.36689 11.1283 10.5545C11.1283 13.7422 13.7124 16.3266 16.9001 16.3266C20.0878 16.3266 22.6719 13.7422 22.6719 10.5545C22.6719 7.36689 20.0878 4.78271 16.9001 4.78271ZM16.9001 12.9406C15.5824 12.9406 14.5142 11.8723 14.5142 10.5546C14.5142 9.23691 15.5824 8.16867 16.9001 8.16867C18.2178 8.16867 19.286 9.23691 19.286 10.5546C19.286 11.8723 18.2178 12.9406 16.9001 12.9406Z" fill="#4D3E37"/>
<path d="M18.9378 20.919C21.2485 20.4483 22.6332 19.354 22.7064 19.2953C23.3826 18.753 23.4912 17.7653 22.9489 17.0891C22.4068 16.4129 21.4191 16.3043 20.7428 16.8465C20.7285 16.8581 19.2517 17.991 16.8217 17.9926C14.3918 17.991 12.8837 16.8581 12.8695 16.8465C12.1931 16.3043 11.2055 16.4129 10.6633 17.0891C10.1211 17.7653 10.2297 18.753 10.9059 19.2953C10.9801 19.3548 12.4219 20.4776 14.7974 20.9373L11.4868 24.3971C10.8851 25.0211 10.9032 26.0146 11.5272 26.6162C11.8317 26.9099 12.2242 27.0558 12.6164 27.0558C13.0276 27.0558 13.4383 26.8952 13.7462 26.5758L16.8218 23.2995L20.208 26.597C20.8215 27.2095 21.815 27.2085 22.4274 26.5953C23.0398 25.9819 23.0391 24.9882 22.4257 24.3758L18.9378 20.919Z" fill="#4D3E37"/>
</g>
<defs>
<clipPath id="clip0_251_49">
<rect width="32.1641" height="32" fill="white" transform="translate(0.835938)"/>
</clipPath>
</defs>
</svg>
