<svg width="32" height="32" viewBox="0 0 32 32" fill="none" xmlns="http://www.w3.org/2000/svg">
<g clip-path="url(#clip0_308_26)">
<path fill-rule="evenodd" clip-rule="evenodd" d="M16 2.67029e-05C11.6134 2.67029e-05 6.052 1.85966e-05 3.07468e-06 0C-3.71058e-06 6.68753 2.85136e-06 27.5507 2.85136e-06 32C8.53125 32 23.164 32 32 32C32 24.9688 32 8.83601 32 8.10623e-06C16 1.85966e-05 24.836 2.67029e-05 16 2.67029e-05ZM23.416 10.8814C23.176 13.4107 22.1333 19.5507 21.604 22.384C21.38 23.584 20.9373 23.9854 20.5107 24.024C19.5813 24.1094 18.876 23.4094 17.976 22.82C16.568 21.8974 15.772 21.3227 14.4053 20.4214C12.8253 19.38 13.8493 18.808 14.7493 17.8734C14.9853 17.628 19.0787 13.904 19.1587 13.5667C19.168 13.524 19.1787 13.3667 19.084 13.284C18.9893 13.2014 18.852 13.2294 18.7533 13.252C18.612 13.284 16.3627 14.7707 12.004 17.712C11.3653 18.1507 10.7867 18.364 10.268 18.3534C9.69734 18.3414 8.59867 18.0307 7.78133 17.764C6.78 17.4387 5.98267 17.2654 6.052 16.7134C6.088 16.4254 6.484 16.1307 7.24134 15.8294C11.9053 13.7974 15.016 12.4574 16.572 11.8094C21.016 9.96136 21.9387 9.64003 22.5413 9.62936C23.296 9.6187 23.4773 10.2414 23.416 10.8814Z" fill="white"/>
</g>
<defs>
<clipPath id="clip0_308_26">
<rect width="32" height="32" rx="4" fill="white"/>
</clipPath>
</defs>
</svg>
