<svg width="32" height="32" viewBox="0 0 32 32" fill="none" xmlns="http://www.w3.org/2000/svg">
<g clip-path="url(#clip0_250_23)">
<path d="M29.7547 2.24533C27.5093 0 23.8947 0 16.6667 0H15.3333C8.10533 0 4.49067 0 2.24533 2.24533C0 4.49067 0 8.10533 0 15.3333V16.6667C0 23.8947 0 27.508 2.24533 29.7547C4.49067 32.0013 8.10533 32 15.3333 32H16.6667C23.8947 32 27.508 32 29.7547 29.7547C32 27.5093 32 23.8947 32 16.6667V15.3333C32 8.10533 32 4.49067 29.7547 2.24533ZM26.004 22.6667H23.6707C22.7813 22.6667 22.52 21.9573 20.9373 20.3747C19.552 19.04 18.9587 18.8667 18.6133 18.8667C18.1427 18.8667 18.0027 19 18.0027 19.6667V21.7587C18.0027 22.332 17.82 22.6667 16.336 22.6667C13.864 22.6667 11.1467 21.1653 9.21733 18.3973C6.324 14.3427 5.53333 11.2773 5.53333 10.66C5.53333 10.3133 5.66667 10 6.33333 10H8.668C9.264 10 9.488 10.2613 9.712 10.9067C10.8533 14.2307 12.7787 17.136 13.5693 17.136C13.8653 17.136 14.0013 16.9987 14.0013 16.2467V12.8107C13.9147 11.2293 13.0733 11.0987 13.0733 10.536C13.0733 10.276 13.296 10 13.6667 10H17.3347C17.8293 10 18.0013 10.264 18.0013 10.8573V15.48C18.0013 15.9733 18.216 16.1467 18.364 16.1467C18.6613 16.1467 18.908 15.9733 19.452 15.4293C21.1333 13.5507 22.32 10.6587 22.32 10.6587C22.4693 10.312 22.7413 9.99867 23.336 9.99867H25.6693C26.3747 9.99867 26.524 10.3613 26.3747 10.856C26.0773 12.216 23.2347 16.22 23.2347 16.22C22.9867 16.616 22.888 16.8133 23.2347 17.2587C23.4827 17.6053 24.2973 18.2973 24.8413 18.94C25.844 20.068 26.6 21.0187 26.8107 21.6747C27.0053 22.3333 26.6707 22.6667 26.004 22.6667Z" fill="white"/>
</g>
<defs>
<clipPath id="clip0_250_23">
<rect width="32" height="32" fill="white"/>
</clipPath>
</defs>
</svg>
