<svg width="32" height="32" viewBox="0 0 32 32" fill="none" xmlns="http://www.w3.org/2000/svg">
<rect width="32" height="32" rx="4" fill="white"/>
<path fill-rule="evenodd" clip-rule="evenodd" d="M24.406 7.488C22.16 5.24 19.174 4.001 15.993 4C9.438 4 4.103 9.334 4.1 15.892C4.099 17.988 4.647 20.034 5.688 21.838L4 28L10.304 26.346C12.041 27.294 13.997 27.793 15.987 27.794H15.992C22.546 27.794 27.882 22.459 27.885 15.901C27.887 12.724 26.651 9.735 24.406 7.488ZM15.993 25.785H15.989C14.215 25.785 12.476 25.308 10.958 24.407L10.597 24.193L6.856 25.174L7.855 21.526L7.62 21.152C6.63 19.578 6.108 17.759 6.109 15.892C6.111 10.442 10.546 6.008 15.998 6.008C18.638 6.008 21.12 7.038 22.986 8.906C24.852 10.775 25.879 13.258 25.878 15.899C25.875 21.351 21.441 25.785 15.993 25.785ZM21.415 18.382C21.118 18.233 19.657 17.514 19.384 17.415C19.112 17.316 18.914 17.266 18.715 17.563C18.516 17.86 17.948 18.53 17.774 18.729C17.601 18.927 17.427 18.952 17.13 18.803C16.833 18.654 15.875 18.341 14.74 17.328C13.857 16.54 13.26 15.567 13.087 15.269C12.914 14.971 13.069 14.811 13.217 14.663C13.351 14.53 13.514 14.316 13.663 14.142C13.813 13.97 13.862 13.846 13.962 13.647C14.061 13.449 14.012 13.275 13.937 13.126C13.862 12.978 13.268 11.515 13.021 10.92C12.78 10.34 12.535 10.419 12.352 10.41C12.179 10.401 11.981 10.4 11.782 10.4C11.584 10.4 11.262 10.474 10.99 10.772C10.718 11.07 9.95 11.789 9.95 13.251C9.95 14.714 11.015 16.127 11.163 16.325C11.311 16.523 13.258 19.525 16.239 20.812C16.948 21.118 17.502 21.301 17.933 21.438C18.645 21.664 19.293 21.632 19.805 21.556C20.376 21.471 21.563 20.837 21.811 20.143C22.059 19.449 22.059 18.853 21.984 18.73C21.91 18.605 21.712 18.531 21.415 18.382Z" fill="#4D3E37"/>
</svg>
