<svg width="32" height="32" viewBox="0 0 32 32" fill="none" xmlns="http://www.w3.org/2000/svg">
<path fill-rule="evenodd" clip-rule="evenodd" d="M4 0C1.79086 0 0 1.79086 0 4V28C0 30.2091 1.79086 32 4 32H28C30.2091 32 32 30.2091 32 28V4C32 1.79086 30.2091 0 28 0H4ZM15.993 4C19.174 4.001 22.16 5.24 24.406 7.488C26.651 9.735 27.887 12.724 27.885 15.901C27.882 22.459 22.546 27.794 15.992 27.794H15.987C13.997 27.793 12.041 27.294 10.304 26.346L4 28L5.688 21.838C4.647 20.034 4.099 17.988 4.1 15.892C4.103 9.334 9.438 4 15.993 4ZM15.989 25.785H15.993C21.441 25.785 25.875 21.351 25.878 15.899C25.879 13.258 24.852 10.775 22.986 8.906C21.12 7.038 18.638 6.008 15.998 6.008C10.546 6.008 6.111 10.442 6.109 15.892C6.108 17.759 6.63 19.578 7.62 21.152L7.855 21.526L6.856 25.174L10.597 24.193L10.958 24.407C12.476 25.308 14.215 25.785 15.989 25.785ZM19.384 17.415C19.657 17.514 21.118 18.233 21.415 18.382C21.4733 18.4112 21.5278 18.4376 21.5783 18.462C21.785 18.562 21.9245 18.6295 21.984 18.73C22.059 18.853 22.059 19.449 21.811 20.143C21.563 20.837 20.376 21.471 19.805 21.556C19.293 21.632 18.645 21.664 17.933 21.438C17.502 21.301 16.948 21.118 16.239 20.812C13.4515 19.6085 11.5681 16.9055 11.2143 16.3978C11.1898 16.3625 11.1726 16.3379 11.163 16.325L11.1595 16.3203C10.9989 16.1055 9.95 14.7029 9.95 13.251C9.95 11.8846 10.6209 11.1672 10.9307 10.8359C10.9523 10.8127 10.9722 10.7915 10.99 10.772C11.262 10.474 11.584 10.4 11.782 10.4C11.981 10.4 12.179 10.401 12.352 10.41C12.3735 10.4111 12.3958 10.4109 12.4188 10.4107C12.5924 10.4095 12.8083 10.408 13.021 10.92C13.0972 11.1034 13.2063 11.3694 13.323 11.6539C13.5849 12.2921 13.8851 13.0236 13.937 13.126C14.012 13.275 14.061 13.449 13.962 13.647C13.9466 13.6777 13.9323 13.7067 13.9188 13.7343C13.8445 13.8854 13.7898 13.9966 13.663 14.142C13.6132 14.2002 13.5618 14.2628 13.5104 14.3255C13.4082 14.4501 13.3062 14.5745 13.217 14.663C13.069 14.811 12.914 14.971 13.087 15.269C13.26 15.567 13.857 16.54 14.74 17.328C15.6883 18.1744 16.513 18.5321 16.9319 18.7138C17.0144 18.7495 17.0811 18.7785 17.13 18.803C17.427 18.952 17.601 18.927 17.774 18.729C17.948 18.53 18.516 17.86 18.715 17.563C18.914 17.266 19.112 17.316 19.384 17.415Z" fill="white"/>
</svg>
